<?xml version="1.0" encoding="UTF-8"?>
<svg id="Layer_1" data-name="Layer 1" xmlns="http://www.w3.org/2000/svg" version="1.1" viewBox="0 0 1080 1080">
  <defs>
    <style>
      .cls-1 {
        fill: none;
        stroke: #fff;
        stroke-miterlimit: 10;
        stroke-width: 12.47px;
      }

      .cls-2 {
        fill: #fff;
        stroke-width: 0px;
      }
    </style>
  </defs>
  <path class="cls-2" d="M900.91,354.01c-18.85-52.45-45.4-96.06-79.63-130.84-34.24-34.77-75.16-60.93-122.73-78.48-47.59-17.52-100.42-26.06-158.47-25.56-75.26.64-142.59,16.73-202.01,48.22-59.44,31.51-105.86,78.59-139.27,141.28-33.41,62.68-49.69,142.16-48.87,238.38.58,68.51,10.09,128.58,28.53,180.22,18.42,51.64,44.76,94.85,79,129.62,34.22,34.79,75.14,60.95,122.73,78.48,47.57,17.52,100.82,26.05,159.7,25.55,58.06-.5,111.14-9.73,159.24-27.67,48.1-17.94,89.37-44.6,123.84-79.97,34.45-35.35,61.06-79.44,79.84-132.2,18.76-52.77,27.85-114.64,27.25-185.59-.58-68.51-10.31-128.99-29.16-181.43ZM772.25,593.51c-13.21,73.59-33.34,134.39-60.34,182.42-27.01,48.01-60.02,82.57-99,103.63-39,21.09-83.47,27.34-133.43,18.81-37.73-6.44-70.22-20.19-97.43-41.26-27.24-21.05-47.82-48.34-61.76-81.86-13.96-33.5-22.3-73.42-25.01-119.73-2.72-46.31,1.04-98.01,11.3-155.13,13.6-75.78,34.26-138.18,61.98-187.23,27.72-49.02,61.06-84.07,100.06-105.16,38.98-21.06,82.96-27.43,131.9-19.07,50.97,8.71,91.55,30.07,121.69,64.09,30.15,34.01,49.52,79.76,58.13,137.26,8.59,57.5,5.88,125.25-8.11,203.22Z"/>
  <path class="cls-1" d="M489.61,839.07c41.6,7.11,78.64,1.89,111.12-15.67,32.47-17.54,59.95-46.32,82.45-86.31,22.49-40,39.25-90.63,50.25-151.92,11.66-64.93,13.91-121.35,6.76-169.24-7.16-47.89-23.3-85.99-48.41-114.31-25.11-28.34-58.9-46.13-101.35-53.38-40.76-6.96-77.38-1.66-109.85,15.88-32.48,17.56-60.25,46.76-83.33,87.58-23.08,40.84-40.29,92.81-51.62,155.92-8.54,47.57-11.68,90.62-9.41,129.2,2.26,38.57,9.2,71.81,20.83,99.71,11.6,27.92,28.75,50.65,51.43,68.18,22.66,17.55,49.72,28.99,81.14,34.36Z"/>
  <path class="cls-1" d="M499.73,779.76c33.25,5.68,62.85,1.51,88.81-12.52,25.95-14.02,47.92-37.02,65.9-68.98,17.97-31.97,31.37-72.44,40.16-121.42,9.32-51.9,11.12-96.99,5.4-135.26-5.73-38.27-18.62-68.73-38.69-91.36-20.07-22.65-47.08-36.87-81-42.66-32.58-5.56-61.85-1.33-87.8,12.69-25.96,14.04-48.15,37.37-66.6,69.99-18.45,32.64-32.2,74.18-41.25,124.62-6.83,38.02-9.33,72.43-7.52,103.26,1.8,30.83,7.35,57.4,16.64,79.7,9.27,22.31,22.98,40.48,41.11,54.49,18.11,14.02,39.73,23.17,64.85,27.46Z"/>
  <path class="cls-1" d="M509.85,720.46c24.9,4.25,47.06,1.13,66.5-9.38,19.43-10.5,35.88-27.72,49.34-51.65,13.46-23.94,23.49-54.24,30.07-90.92,6.98-38.86,8.33-72.63,4.04-101.29-4.29-28.66-13.94-51.46-28.97-68.42-15.03-16.96-35.25-27.61-60.66-31.95-24.39-4.17-46.31-.99-65.74,9.51-19.44,10.51-36.06,27.98-49.87,52.41-13.81,24.44-24.11,55.55-30.89,93.32-5.11,28.47-6.99,54.24-5.63,77.32,1.35,23.08,5.51,42.98,12.46,59.68,6.94,16.71,17.21,30.31,30.78,40.8,13.56,10.5,29.75,17.35,48.56,20.56Z"/>
  <path class="cls-1" d="M519.97,661.15c16.55,2.83,31.28.75,44.19-6.23,12.91-6.98,23.84-18.42,32.79-34.33,8.94-15.91,15.61-36.05,19.99-60.42,4.64-25.83,5.53-48.27,2.69-67.31-2.85-19.05-9.27-34.2-19.25-45.47-9.99-11.27-23.43-18.35-40.31-21.23-16.21-2.77-30.78-.66-43.69,6.32-12.92,6.98-23.96,18.6-33.14,34.83-9.18,16.24-16.02,36.91-20.53,62.01-3.4,18.92-4.64,36.04-3.74,51.38.9,15.34,3.66,28.56,8.28,39.66,4.61,11.1,11.43,20.14,20.46,27.12,9.01,6.98,19.77,11.53,32.27,13.67Z"/>
  <path class="cls-1" d="M530.09,601.84c8.19,1.4,15.49.37,21.89-3.09,6.39-3.45,11.81-9.12,16.24-17,4.43-7.88,7.73-17.85,9.9-29.92,2.3-12.79,2.74-23.9,1.33-33.33-1.41-9.43-4.59-16.94-9.53-22.52-4.95-5.58-11.6-9.09-19.96-10.51-8.03-1.37-15.24-.33-21.64,3.13-6.4,3.46-11.87,9.21-16.41,17.25-4.55,8.05-7.94,18.28-10.17,30.71-1.68,9.37-2.3,17.85-1.85,25.45.44,7.6,1.81,14.15,4.1,19.64,2.29,5.5,5.66,9.98,10.13,13.43,4.46,3.46,9.79,5.71,15.98,6.77Z"/>
</svg>